<?xml version="1.0" standalone="no"?>
<!DOCTYPE svg PUBLIC "-//W3C//DTD SVG 20010904//EN"
 "http://www.w3.org/TR/2001/REC-SVG-20010904/DTD/svg10.dtd">
<svg version="1.0" xmlns="http://www.w3.org/2000/svg"
 width="300.000000pt" height="300.000000pt" viewBox="0 0 300.000000 300.000000"
 preserveAspectRatio="xMidYMid meet">

<g transform="translate(0.000000,300.000000) scale(0.100000,-0.100000)"
fill="#000000" stroke="none">
<path d="M0 2385 l0 -615 63 0 62 -1 114 -193 114 -194 62 102 c34 55 87 143
119 194 l58 92 60 0 60 0 -23 -37 c-13 -21 -53 -83 -89 -138 -36 -55 -93 -142
-126 -192 l-59 -93 -61 0 -62 0 -89 138 c-49 75 -113 174 -142 220 -29 45 -55
82 -57 82 -2 0 -4 -394 -4 -875 l0 -875 1500 0 1500 0 0 655 0 655 -240 0
-240 0 0 230 0 230 55 0 55 0 0 -195 0 -195 185 0 185 0 0 810 0 810 -1500 0
-1500 0 0 -615z m910 -845 l0 -230 -55 0 -55 0 0 230 0 230 55 0 55 0 0 -230z
m665 203 c95 -53 130 -107 129 -203 -1 -77 -17 -114 -75 -163 -70 -60 -105
-67 -351 -67 l-218 0 0 231 0 230 238 -3 c223 -3 239 -4 277 -25z m624 -35
c24 -35 95 -138 158 -230 l114 -168 -68 0 -68 0 -75 118 c-41 64 -96 153 -122
196 -26 44 -48 75 -48 69 0 -5 -32 -61 -71 -124 -90 -144 -115 -186 -136 -226
-16 -32 -19 -33 -80 -33 -61 0 -63 1 -53 20 11 20 87 139 185 290 23 36 54 84
69 108 l26 42 63 0 63 0 43 -62z"/>
<path d="M1180 1540 l0 -162 148 4 c174 5 210 17 242 83 40 83 17 170 -54 208
-36 19 -60 22 -188 25 l-148 4 0 -162z"/>
</g>
</svg>
